<?xml version="1.0" encoding="UTF-8"?>
<svg id="Layer_1" data-name="Layer 1" xmlns="http://www.w3.org/2000/svg" xmlns:xlink="http://www.w3.org/1999/xlink"
     viewBox="0 0 16 16">
    <defs>
        <style>
            .cls-1 {
            fill: url(#linear-gradient-2);
            }

            .cls-2 {
            fill: url(#linear-gradient);
            }

            .cls-3 {
            fill: #a2a2a2;
            }
        </style>
        <linearGradient id="linear-gradient" x1="8.29" y1="8.15" x2="12.41" y2="5.09" gradientUnits="userSpaceOnUse">
            <stop offset="0" stop-color="#ff4715"/>
            <stop offset="1" stop-color="#f70"/>
        </linearGradient>
        <linearGradient id="linear-gradient-2" x1="3.01" y1="7.98" x2="7.12" y2="4.92" xlink:href="#linear-gradient"/>
    </defs>
    <path class="cls-2" d="M11.35,4.52h-2.55c.06.35.1.74.1,1.18v2.5h3.7v-2.5c-.06-.45-.3-1.17-1.25-1.17Z"/>
    <path class="cls-1"
          d="M5.85,4.83c-.2-.2-.55-.31-1.05-.31-.46,0-.79.1-.98.3-.28.29-.33.8-.32.97v2.41h2.63v-2.53s0-.55-.29-.84ZM4.77,6.59c-.34,0-.62-.28-.62-.62s.28-.62.62-.62.62.28.62.62-.28.62-.62.62Z"/>
    <path class="cls-3"
          d="M14.43,5.97c0-1.81-1.47-3.29-3.29-3.29h-5.81v.03c-.16-.02-.32-.03-.5-.03-2.42,0-3.27,1.76-3.27,3.27v4.07h6.45v3.29h1v-3.29h5.41v-4.06ZM7.06,9.03H2.57v-3.07c0-.68.22-2.27,2.27-2.27.69,0,1.23.19,1.6.56.62.62.62,1.56.62,1.58v3.21ZM13.43,9.03h-5.37v-3.2c0-.05,0-1.24-.78-2.15h3.86c1.26,0,2.29,1.03,2.29,2.29v3.06Z"/>
</svg>
